<svg width="16" height="16" viewBox="0 0 16 16" fill="none" xmlns="http://www.w3.org/2000/svg">
<path d="M1.0938 6.9074C0.803707 6.9074 0.52549 7.02266 0.320363 7.22783C0.115235 7.43299 0 7.71125 0 8.0014C0 8.29154 0.115235 8.56981 0.320363 8.77497C0.52549 8.98013 0.803707 9.09539 1.0938 9.09539H6.90633V14.9087C6.90699 15.1983 7.02252 15.4759 7.22755 15.6805C7.43258 15.8851 7.71037 16 7.99999 16C8.28961 16 8.56742 15.8851 8.77245 15.6805C8.97748 15.4759 9.09299 15.1983 9.09365 14.9087V9.09539H14.9062C15.1963 9.09539 15.4745 8.98013 15.6796 8.77497C15.8847 8.56981 16 8.29154 16 8.0014C16 7.71125 15.8847 7.43299 15.6796 7.22783C15.4745 7.02266 15.1963 6.9074 14.9062 6.9074H9.09365V1.09385C9.09365 0.803744 8.97843 0.52552 8.77332 0.320383C8.56822 0.115247 8.29005 0 7.99999 0C7.70993 0 7.43176 0.115247 7.22666 0.320383C7.02156 0.52552 6.90633 0.803744 6.90633 1.09385V6.9074H1.0938Z" fill="white"/>
</svg>
