<svg width="72" height="66" viewBox="0 0 72 66" fill="none" xmlns="http://www.w3.org/2000/svg">
<path d="M9.375 9.5V0.125H15.625V9.5H25V15.75H15.625V25.125H9.375V15.75H0V9.5H9.375ZM18.75 28.25V18.875H28.125V9.5H50L55.7187 15.75H71.875V65.75H9.375V28.25H18.75ZM40.625 56.375C49.25 56.375 56.25 49.375 56.25 40.75C56.25 32.125 49.25 25.125 40.625 25.125C32 25.125 25 32.125 25 40.75C25 49.375 32 56.375 40.625 56.375ZM31.25 40.75C31.25 45.9375 35.4375 50.125 40.625 50.125C45.8125 50.125 50 45.9375 50 40.75C50 35.5625 45.8125 31.375 40.625 31.375C35.4375 31.375 31.25 35.5625 31.25 40.75Z" fill="#D5D6D9"/>
</svg>
